<svg width="169" height="85" viewBox="0 0 169 85" fill="none" xmlns="http://www.w3.org/2000/svg">
<path d="M51.568 26.736C51.6533 28.1867 51.696 29.4667 51.696 30.576C51.696 32.5387 51.5253 34.8427 51.184 37.488C49.8187 37.2747 48.8373 37.168 48.24 37.168C47.088 37.168 45.5093 37.232 43.504 37.36H43.184C43.1413 37.744 43.12 38.8747 43.12 40.752C43.12 44.8053 43.2693 55.0453 43.568 71.472C42.5867 71.6427 41.2427 71.728 39.536 71.728H37.68C35.2907 71.728 33.4347 71.8347 32.112 72.048C31.984 71.8347 31.8773 71.3653 31.792 70.64L30.832 70.768C30.6187 70.384 30.512 69.5733 30.512 68.336L30.576 58.544C30.576 52.4427 30.384 45.36 30 37.296C29.6587 37.2533 29.1253 37.232 28.4 37.232C28.144 37.232 27.6747 37.232 26.992 37.232C26.352 37.232 25.7547 37.2107 25.2 37.168C24.688 37.1253 24.1973 37.0187 23.728 36.848C23.6853 36.7627 23.6427 36.6347 23.6 36.464C23.6 36.2933 23.5147 36.144 23.344 36.016C23.1733 35.888 22.8747 35.7387 22.448 35.568C22.32 35.2693 22.192 34.5013 22.064 33.264C21.9787 32.0267 21.936 30.6827 21.936 29.232C21.936 26.928 21.9573 25.2853 22 24.304C24.688 24.304 26.7147 24.2827 28.08 24.24L34.224 24.176C40.4107 24.176 45.5733 24.4107 49.712 24.88L50.288 25.456V26.096L50.992 26.16L51.568 26.736ZM22.64 24.944L22.704 25.072C22.6187 25.6267 22.576 26.4373 22.576 27.504C22.576 32.1547 22.704 34.6933 22.96 35.12C23.1733 35.2053 23.8347 35.248 24.944 35.248C26.4373 35.248 27.6107 35.2907 28.464 35.376C29.3173 35.4187 30.0427 35.5893 30.64 35.888L30.704 35.952C31.0453 43.7173 31.216 51.3973 31.216 58.992C31.216 62.2773 31.1733 65.1147 31.088 67.504V69.424L31.152 70.064C31.92 69.936 32.752 69.872 33.648 69.872H36.336C38.8533 69.872 40.624 69.7867 41.648 69.616V69.488C41.3493 53.104 41.2 43.0987 41.2 39.472V37.168C41.2 36.3147 41.2427 35.8027 41.328 35.632L41.392 35.44H41.584C43.8027 35.312 45.552 35.248 46.832 35.248C47.856 35.248 48.7093 35.312 49.392 35.44C49.648 33.5627 49.776 31.5147 49.776 29.296C49.776 28.4 49.7333 27.1413 49.648 25.52C45.424 25.0933 40.2827 24.88 34.224 24.88L22.64 24.944ZM59.2105 38.64C59.7652 38.7253 60.1065 38.8107 60.2345 38.896C62.6665 38.128 64.9918 37.744 67.2105 37.744C68.2772 37.744 69.1945 37.808 69.9625 37.936C70.7305 38.0213 71.1145 38.1067 71.1145 38.192V39.152C71.9678 39.28 72.3945 39.3867 72.3945 39.472L72.3305 44.912C72.2878 45.6373 72.2665 46.576 72.2665 47.728C72.2665 48.4107 72.3305 49.712 72.4585 51.632L70.9865 51.12L71.0505 51.184L70.2825 50.928L70.3465 50.992C68.6398 50.5653 67.4878 50.3093 66.8905 50.224C66.3358 50.1387 65.8452 50.096 65.4185 50.096C64.9918 50.096 64.6932 50.096 64.5225 50.096C63.0718 50.096 61.9838 50.3947 61.2585 50.992C60.5758 51.5467 60.2345 52.5707 60.2345 54.064C60.4052 59.312 60.4905 64.9013 60.4905 70.832V71.6C59.1252 71.984 57.8665 72.176 56.7145 72.176C56.0318 72.176 55.5198 72.1547 55.1785 72.112L53.2585 72.048H52.4905C51.8505 72.048 51.2318 72.0907 50.6345 72.176V70.768L49.3545 70.896L49.2905 58.8C49.2052 53.424 49.1625 49.3493 49.1625 46.576C49.1625 44.3147 49.2052 41.264 49.2905 37.424C50.3145 37.552 51.2745 37.616 52.1705 37.616C52.5118 37.616 53.0665 37.5733 53.8345 37.488C54.6452 37.36 55.7332 37.296 57.0985 37.296C58.5065 37.296 59.2105 37.552 59.2105 38.064V38.64ZM58.5705 38.064C58.5705 37.9787 58.3145 37.936 57.8025 37.936C56.3945 37.936 55.1998 38 54.2185 38.128C53.2372 38.2133 52.5545 38.256 52.1705 38.256H51.4025C50.8478 38.256 50.3572 38.2133 49.9305 38.128C49.8452 39.4507 49.8025 41.392 49.8025 43.952V47.856C49.8025 50.4587 49.8452 54.2347 49.9305 59.184L49.9945 70.192C50.5065 70.1493 51.2105 70.128 52.1065 70.128L55.5625 70.192C56.5865 70.192 57.5892 70.064 58.5705 69.808V69.552C58.5705 67.2907 58.5278 64.368 58.4425 60.784C58.3572 57.2 58.3145 54.4053 58.3145 52.4C58.3145 50.8213 58.7198 49.7333 59.5305 49.136C60.3838 48.496 61.6212 48.176 63.2425 48.176C63.4985 48.176 63.8612 48.176 64.3305 48.176C64.8425 48.1333 65.4185 48.176 66.0585 48.304C66.7412 48.3893 67.5732 48.56 68.5545 48.816C68.7678 48.9013 68.9812 48.9867 69.1945 49.072C69.4505 49.1147 69.6852 49.1787 69.8985 49.264L70.4745 49.456C70.4318 48.9867 70.4105 48.304 70.4105 47.408V45.04L70.4745 38.192C70.4745 38.1067 70.0265 38.064 69.1305 38.064C67.5092 38.064 65.5892 38.2987 63.3705 38.768C61.1945 39.1947 59.6158 39.6853 58.6345 40.24C58.6345 39.9413 58.6132 39.728 58.5705 39.6C58.5705 39.472 58.5705 39.3653 58.5705 39.28V38.064ZM83.029 57.072C83.029 58.1813 83.093 59.0987 83.221 59.824C83.3917 60.5067 83.7117 61.2533 84.181 62.064V62.192C84.7357 62.4907 85.4183 62.64 86.229 62.64C87.125 62.64 87.8717 62.2347 88.469 61.424C89.0663 60.5707 89.365 59.312 89.365 57.648V57.008C90.3037 57.0933 91.0077 57.136 91.477 57.136L93.717 57.072C94.1863 57.0293 94.9117 57.008 95.893 57.008C96.6183 57.008 97.5783 57.1147 98.773 57.328L98.709 58.416L100.053 58.608C100.053 63.216 99.541 66.5227 98.517 68.528C97.5357 70.5333 96.2557 71.728 94.677 72.112C93.141 72.5387 90.773 72.752 87.573 72.752C85.013 72.752 82.965 72.56 81.429 72.176C79.9357 71.8347 78.6557 71.024 77.589 69.744C75.6263 68.1227 74.1757 65.7973 73.237 62.768C72.2983 59.7387 71.829 56.4533 71.829 52.912C71.829 48.7733 72.3197 45.3813 73.301 42.736C74.197 40.688 75.7543 39.1307 77.973 38.064C80.1917 36.9547 82.6663 36.4 85.397 36.4C88.6823 36.4 91.4343 37.104 93.653 38.512C95.9143 39.92 97.5783 41.8187 98.645 44.208C99.7543 46.5547 100.309 49.136 100.309 51.952C100.309 52.208 100.245 53.296 100.117 55.216C99.3063 55.4293 97.1517 55.6213 93.653 55.792C90.197 55.9627 87.125 56.048 84.437 56.048C83.797 56.048 83.3277 56.0267 83.029 55.984V57.072ZM81.109 53.936C81.621 54.064 83.093 54.128 85.525 54.128C87.8717 54.128 90.4103 54.064 93.141 53.936C95.8717 53.7653 97.5783 53.5947 98.261 53.424C98.3463 52.144 98.389 51.2267 98.389 50.672C98.389 46.4053 97.429 43.0773 95.509 40.688C93.6317 38.256 90.261 37.04 85.397 37.04C82.837 37.04 80.469 37.5733 78.293 38.64C76.1597 39.664 74.6877 41.0933 73.877 42.928C72.8957 45.5733 72.405 49.1147 72.405 53.552C72.405 57.9893 73.1517 61.8293 74.645 65.072C76.1383 68.3147 78.4637 70.1707 81.621 70.64L84.437 70.704C85.8877 70.7893 87.0183 70.832 87.829 70.832C89.8343 70.832 91.541 70.6187 92.949 70.192C94.3997 69.7653 95.5303 68.976 96.341 67.824C96.8957 67.3547 97.2797 66.3733 97.493 64.88C97.7063 63.344 97.9197 60.9973 98.133 57.84C97.493 57.712 96.661 57.648 95.637 57.648L93.141 57.712C92.629 57.7547 91.925 57.776 91.029 57.776C90.517 57.776 90.197 57.7547 90.069 57.712V58.224C90.069 59.888 89.685 61.1467 88.917 62C88.1917 62.8533 87.2957 63.28 86.229 63.28C82.9437 63.28 81.237 60.5493 81.109 55.088V53.936ZM91.349 48.88C91.349 49.008 91.1997 49.072 90.901 49.072C90.6877 49.072 90.261 49.0507 89.621 49.008C88.981 48.9653 88.213 48.944 87.317 48.944L83.157 49.008C82.3463 49.008 81.813 48.9653 81.557 48.88C81.301 48.7947 81.173 48.6027 81.173 48.304C81.173 45.0187 82.9863 43.376 86.613 43.376C87.4237 43.376 88.1703 43.5893 88.853 44.016C89.621 44.4 90.2183 44.976 90.645 45.744C91.1143 46.512 91.349 47.3227 91.349 48.176V48.88ZM89.813 45.808C89.2583 45.4667 88.6183 45.296 87.893 45.296C86.3997 45.296 85.3117 45.552 84.629 46.064C83.989 46.576 83.541 47.344 83.285 48.368L84.501 48.304H87.317L90.069 48.368L90.709 48.432V48.176C90.709 47.1947 90.4317 46.4267 89.877 45.872L89.813 45.808ZM111.403 24.304H112.683C112.683 26.2667 112.64 30.7893 112.555 37.872C112.512 39.9627 112.469 42.7147 112.427 46.128C112.384 49.5413 112.363 53.5307 112.363 58.096C112.363 63.984 112.448 68.3147 112.619 71.088C112.277 71.4293 111.808 71.664 111.211 71.792C110.613 71.92 109.845 71.984 108.907 71.984C107.669 71.984 106.731 71.9627 106.091 71.92H106.155L104.619 71.856C103.68 71.856 102.891 71.9627 102.251 72.176L102.315 70.64C101.803 70.64 101.355 70.7253 100.971 70.896C101.269 66.7147 101.419 62.8533 101.419 59.312C101.419 56.7093 101.333 52.72 101.163 47.344C100.992 42.0533 100.907 38.0213 100.907 35.248C100.907 30.768 101.099 26.6293 101.483 22.832L111.403 23.024V24.304ZM102.059 23.472C101.675 27.568 101.483 31.6427 101.483 35.696C101.483 39.3653 101.589 43.3973 101.803 47.792C101.973 53.168 102.059 57.1573 102.059 59.76C102.059 63.1733 101.931 66.5867 101.674 70C101.76 69.9573 102.101 69.936 102.699 69.936C103.595 69.936 104.32 69.9573 104.875 70L107.755 70.064C108.693 70.064 109.376 70.0427 109.803 70C110.272 69.9573 110.571 69.8293 110.699 69.616C110.571 67.5253 110.507 63.2373 110.507 56.752C110.507 51.8453 110.549 45.1253 110.635 36.592L110.763 23.664L102.059 23.472ZM124.59 24.304H125.87C125.87 26.2667 125.827 30.7893 125.742 37.872C125.699 39.9627 125.657 42.7147 125.614 46.128C125.571 49.5413 125.55 53.5307 125.55 58.096C125.55 63.984 125.635 68.3147 125.806 71.088C125.465 71.4293 124.995 71.664 124.398 71.792C123.801 71.92 123.033 71.984 122.094 71.984C120.857 71.984 119.918 71.9627 119.278 71.92H119.342L117.806 71.856C116.867 71.856 116.078 71.9627 115.438 72.176L115.502 70.64C114.99 70.64 114.542 70.7253 114.158 70.896C114.457 66.7147 114.606 62.8533 114.606 59.312C114.606 56.7093 114.521 52.72 114.35 47.344C114.179 42.0533 114.094 38.0213 114.094 35.248C114.094 30.768 114.286 26.6293 114.67 22.832L124.59 23.024V24.304ZM115.246 23.472C114.862 27.568 114.67 31.6427 114.67 35.696C114.67 39.3653 114.777 43.3973 114.99 47.792C115.161 53.168 115.246 57.1573 115.246 59.76C115.246 63.1733 115.118 66.5867 114.862 70C114.947 69.9573 115.289 69.936 115.886 69.936C116.782 69.936 117.507 69.9573 118.062 70L120.942 70.064C121.881 70.064 122.563 70.0427 122.99 70C123.459 69.9573 123.758 69.8293 123.886 69.616C123.758 67.5253 123.694 63.2373 123.694 56.752C123.694 51.8453 123.737 45.1253 123.822 36.592L123.95 23.664L115.246 23.472ZM128.242 40.56C128.882 39.1947 130.14 38.1707 132.018 37.488C133.938 36.8053 136.092 36.464 138.482 36.464C138.823 36.5067 139.612 36.528 140.85 36.528L142.385 36.464C144.007 36.464 145.586 36.72 147.122 37.232C148.658 37.744 149.938 38.4907 150.962 39.472H150.898C151.026 39.6427 151.218 39.8773 151.474 40.176C151.73 40.432 151.964 40.624 152.178 40.752L152.114 40.688C153.266 41.456 154.034 42.992 154.418 45.296C154.844 47.6 155.058 50.4587 155.058 53.872C155.058 56.9013 154.866 60.0373 154.482 63.28C154.098 66.5227 153.564 68.528 152.882 69.296C151.986 70.576 150.77 71.4507 149.234 71.92C147.698 72.3893 145.906 72.624 143.858 72.624C141.682 72.624 139.911 72.56 138.546 72.432C137.223 72.304 135.9 71.9413 134.578 71.344C133.298 70.7893 132.06 69.8933 130.866 68.656L130.29 68.08C128.967 66.8427 128.071 65.264 127.602 63.344C127.132 61.3813 126.898 59.0987 126.898 56.496V54.192L126.962 52.016C126.962 51.504 126.94 51.0133 126.898 50.544C126.855 50.0747 126.834 49.648 126.834 49.264C126.834 47.4293 126.876 46.0427 126.962 45.104C127.047 44.1653 127.367 43.0347 127.922 41.712H127.858C127.9 41.456 127.943 41.2 127.986 40.944C128.071 40.688 128.156 40.5173 128.242 40.432V40.496L128.178 40.688L128.242 40.56ZM127.538 51.888V56.624C127.538 60.3787 128.156 63.4933 129.394 65.968C130.674 68.4 132.956 69.8933 136.242 70.448L139.25 70.512C140.7 70.5973 141.831 70.64 142.642 70.64C144.647 70.64 146.354 70.4267 147.762 70C149.17 69.5733 150.279 68.784 151.09 67.632C151.815 66.9067 152.284 65.2853 152.498 62.768C152.754 60.2507 152.967 56.8587 153.138 52.592C153.138 52.208 153.095 50.8427 153.01 48.496C152.924 46.1067 152.668 44.208 152.242 42.8C151.858 41.3493 151.282 40.3893 150.514 39.92C148.594 38.0427 145.799 37.104 142.13 37.104L139.698 37.168C139.143 37.168 138.716 37.1467 138.418 37.104C136.242 37.104 134.236 37.424 132.402 38.064C130.567 38.704 129.372 39.6213 128.818 40.816C128.348 42.48 128.007 43.952 127.794 45.232C127.58 46.512 127.474 47.8347 127.474 49.2L127.538 51.888ZM140.658 46.768C143.644 46.768 145.138 48.9867 145.138 53.424C145.138 55.2587 145.052 56.7307 144.882 57.84C144.711 58.9067 144.263 59.7813 143.538 60.464C142.812 61.1467 141.703 61.488 140.21 61.488C138.93 61.488 137.884 61.2107 137.074 60.656C136.263 60.1013 135.858 59.2053 135.858 57.968C135.9 57.4133 135.922 56.432 135.922 55.024C135.922 53.0613 135.964 51.5467 136.05 50.48C136.178 49.3707 136.434 48.6667 136.818 48.368C137.671 47.3013 138.951 46.768 140.658 46.768ZM138.482 50.16C138.14 50.3733 137.927 51.3547 137.842 53.104C137.799 54.8107 137.778 56.88 137.778 59.312C137.778 59.9947 137.991 60.4213 138.418 60.592C138.844 60.7627 139.442 60.848 140.21 60.848C142.812 60.848 144.114 59.952 144.114 58.16C144.37 55.856 144.498 54.192 144.498 53.168C144.498 51.76 144.327 50.672 143.986 49.904C143.687 49.136 142.962 48.752 141.81 48.752C141.554 48.752 141.084 48.7947 140.402 48.88H140.466C139.655 49.0933 139.036 49.4773 138.61 50.032L138.482 50.16Z" fill="black"/>
<path d="M147.64 28.03C147.64 28.17 147.66 28.28 147.7 28.36C147.7 28.56 147.67 28.68 147.61 28.72C147.57 28.76 147.46 28.78 147.28 28.78L135.88 28.93H134.41C134.27 28.79 134.2 28.66 134.2 28.54V28.33H133.81C133.67 28.19 133.6 28.06 133.6 27.94C133.66 27.18 133.69 26.45 133.69 25.75C133.71 24.45 133.78 23.41 133.9 22.63C134.02 21.83 134.31 21.04 134.77 20.26C135.33 19.64 135.92 19.11 136.54 18.67C137.18 18.21 137.99 17.68 138.97 17.08C139.93 16.52 140.66 16.05 141.16 15.67C141.8 15.19 142.12 14.56 142.12 13.78C142.12 13.04 141.88 12.62 141.4 12.52C140.68 12.52 140.19 12.87 139.93 13.57C139.67 14.27 139.51 15.14 139.45 16.18C138.47 16.34 137.25 16.42 135.79 16.42C135.35 16.42 134.9 16.36 134.44 16.24C134.4 16.04 134.36 15.92 134.32 15.88C134.3 15.82 134.24 15.78 134.14 15.76C134.04 15.72 133.94 15.68 133.84 15.64C133.7 14.94 133.63 14.21 133.63 13.45C133.63 11.27 134.21 9.54 135.37 8.26V8.29C135.87 7.63 136.61 7.15 137.59 6.85C138.59 6.53 139.68 6.37 140.86 6.37C142.32 6.37 143.59 6.66 144.67 7.24C145.75 7.82 146.58 8.64 147.16 9.7C147.76 10.76 148.06 11.98 148.06 13.36L148.09 14.95C148.09 15.99 147.87 16.86 147.43 17.56C147.01 18.26 146.49 18.82 145.87 19.24C145.27 19.64 144.46 20.09 143.44 20.59C142.62 20.99 141.97 21.34 141.49 21.64C141.03 21.92 140.64 22.26 140.32 22.66C140.3 22.76 140.25 22.88 140.17 23.02C140.11 23.16 140.06 23.3 140.02 23.44H141.1L143.83 23.41C145.07 23.37 146.04 23.35 146.74 23.35C146.84 23.57 146.9 23.77 146.92 23.95H147.34C147.56 24.55 147.67 25.17 147.67 25.81L147.64 26.77V27.82V28.03ZM146.8 27.85C146.74 27.63 146.71 27.41 146.71 27.19C146.71 26.79 146.72 26.48 146.74 26.26L146.77 25.3C146.77 24.56 146.69 24.01 146.53 23.65C145.73 23.65 144.63 23.67 143.23 23.71C141.87 23.75 140.82 23.77 140.08 23.77C139.36 23.77 139 23.67 139 23.47C139 22.89 139.16 22.39 139.48 21.97C139.8 21.55 140.17 21.21 140.59 20.95C141.01 20.67 141.59 20.34 142.33 19.96L143.98 19.12C144.98 18.62 145.76 18.01 146.32 17.29C146.9 16.55 147.19 15.6 147.19 14.44C147.19 12.82 147.03 11.46 146.71 10.36C146.41 9.26 145.8 8.37 144.88 7.69C143.96 7.01 142.62 6.67 140.86 6.67C138.52 6.67 136.78 7.27 135.64 8.47C134.5 9.65 133.93 11.31 133.93 13.45C133.93 14.09 133.99 14.74 134.11 15.4L134.14 15.46C134.58 15.52 135.04 15.55 135.52 15.55C136.28 15.55 137.3 15.47 138.58 15.31L138.61 15.25C138.67 14.19 138.84 13.32 139.12 12.64C139.4 11.96 139.97 11.62 140.83 11.62C141.33 11.7 141.71 11.94 141.97 12.34C142.25 12.74 142.39 13.22 142.39 13.78C142.39 14.22 142.3 14.63 142.12 15.01C141.94 15.39 141.68 15.69 141.34 15.91C140.68 16.43 139.82 17 138.76 17.62C137.9 18.14 137.17 18.61 136.57 19.03C135.99 19.43 135.45 19.92 134.95 20.5C134.53 21.16 134.27 21.87 134.17 22.63C134.07 23.37 134.01 24.37 133.99 25.63C133.99 26.39 133.96 27.16 133.9 27.94C133.9 27.98 133.91 28.01 133.93 28.03H146.68L146.8 27.85ZM149.201 28.27H148.691C148.611 27.77 148.571 27.16 148.571 26.44L148.601 25.09C148.621 24.89 148.631 24.63 148.631 24.31C149.191 24.07 149.971 23.95 150.971 23.95C151.731 23.95 152.371 24.07 152.891 24.31L152.951 24.73C153.011 24.75 153.101 24.77 153.221 24.79C153.341 24.81 153.421 24.87 153.461 24.97C153.521 25.05 153.551 25.2 153.551 25.42C153.551 25.8 153.521 26.38 153.461 27.16C153.401 27.92 153.351 28.5 153.311 28.9L149.291 28.87L149.201 28.27ZM152.501 27.94C152.501 27.66 152.531 27.03 152.591 26.05C152.651 25.07 152.681 24.53 152.681 24.43C152.421 24.31 151.851 24.25 150.971 24.25C149.951 24.25 149.271 24.33 148.931 24.49C148.931 24.73 148.921 24.94 148.901 25.12L148.871 26.59C148.871 27.29 148.901 27.75 148.961 27.97L149.051 28H152.501V27.94ZM155.552 9.31C156.112 8.45 156.872 7.75 157.832 7.21C158.792 6.67 159.832 6.4 160.952 6.4C162.752 6.4 164.242 6.94 165.422 8.02C166.622 9.08 167.492 10.4 168.032 11.98C168.592 13.56 168.872 15.13 168.872 16.69V17.77C168.872 19.45 168.602 21.15 168.062 22.87C167.522 24.57 166.692 25.99 165.572 27.13C164.472 28.27 163.102 28.84 161.462 28.84C160.342 28.84 159.342 28.63 158.462 28.21C157.602 27.79 156.912 27.26 156.392 26.62C155.692 26 155.172 25.27 154.832 24.43C154.492 23.57 154.272 22.72 154.172 21.88C154.092 21.02 154.032 19.91 153.992 18.55L153.962 17.77C153.922 17.01 153.902 16.44 153.902 16.06C153.902 14.78 154.022 13.59 154.262 12.49C154.502 11.39 154.922 10.34 155.522 9.34L155.552 9.31ZM154.202 16.06C154.202 16.44 154.222 17.01 154.262 17.77L154.292 18.55C154.332 20.15 154.432 21.48 154.592 22.54C154.752 23.6 155.132 24.59 155.732 25.51C156.352 26.43 157.292 27.11 158.552 27.55C159.292 27.83 160.132 27.97 161.072 27.97C162.632 27.97 163.932 27.44 164.972 26.38C166.012 25.32 166.772 24 167.252 22.42C167.752 20.82 168.002 19.21 168.002 17.59L167.972 16.81C167.992 16.63 168.002 16.36 168.002 16C168.002 14.54 167.762 13.1 167.282 11.68C166.822 10.26 166.062 9.08 165.002 8.14C163.962 7.18 162.632 6.7 161.012 6.7C159.932 6.7 158.912 6.96 157.952 7.48C157.012 7.98 156.292 8.64 155.792 9.46C155.192 10.4 154.772 11.42 154.532 12.52C154.312 13.6 154.202 14.78 154.202 16.06ZM156.122 9.94V9.91H156.152L156.122 9.94ZM158.642 17.59C158.642 15.49 158.792 13.94 159.092 12.94C159.392 11.94 160.012 11.44 160.952 11.44C161.752 11.44 162.292 11.95 162.572 12.97C162.852 13.99 162.992 15.29 162.992 16.87V18.07C162.992 19.57 162.862 20.78 162.602 21.7C162.342 22.6 161.792 23.05 160.952 23.05C160.652 23.05 160.422 23.01 160.262 22.93C159.662 22.83 159.242 22.22 159.002 21.1C158.762 19.98 158.642 18.81 158.642 17.59ZM160.352 22.66C160.532 22.74 160.742 22.78 160.982 22.78C161.642 22.78 162.072 22.42 162.272 21.7C162.492 20.96 162.602 20.29 162.602 19.69C162.622 19.09 162.642 18.73 162.662 18.61C162.682 18.29 162.692 17.71 162.692 16.87C162.692 14.87 162.462 13.4 162.002 12.46C161.782 12.4 161.572 12.37 161.372 12.37C161.012 12.37 160.702 12.48 160.442 12.7C160.202 12.9 159.992 13.42 159.812 14.26C159.652 15.1 159.572 16.41 159.572 18.19C159.572 19.45 159.712 20.59 159.992 21.61L159.962 21.58C160.022 21.72 160.072 21.9 160.112 22.12C160.172 22.32 160.222 22.49 160.262 22.63H160.322L160.352 22.66Z" fill="black"/>
<g filter="url(#filter0_d_20_88)">
<rect x="0.5" y="48.5" width="21" height="21" stroke="black" shape-rendering="crispEdges"/>
</g>
<defs>
<filter id="filter0_d_20_88" x="0" y="48" width="23" height="23" filterUnits="userSpaceOnUse" color-interpolation-filters="sRGB">
<feFlood flood-opacity="0" result="BackgroundImageFix"/>
<feColorMatrix in="SourceAlpha" type="matrix" values="0 0 0 0 0 0 0 0 0 0 0 0 0 0 0 0 0 0 127 0" result="hardAlpha"/>
<feOffset dx="1" dy="1"/>
<feComposite in2="hardAlpha" operator="out"/>
<feColorMatrix type="matrix" values="0 0 0 0 0 0 0 0 0 0 0 0 0 0 0 0 0 0 1 0"/>
<feBlend mode="normal" in2="BackgroundImageFix" result="effect1_dropShadow_20_88"/>
<feBlend mode="normal" in="SourceGraphic" in2="effect1_dropShadow_20_88" result="shape"/>
</filter>
</defs>
</svg>
